<?xml version="1.0" encoding="UTF-8" standalone="no"?>
<svg
   viewBox="0 0 768 768"
   version="1.1"
   xml:space="preserve"
   id="svg23753"
   sodipodi:docname="icon-text-nobg-onblack.svg"
   inkscape:version="1.1.2 (0a00cf5339, 2022-02-04)"
   width="768"
   height="768"
   style="fill-rule:evenodd;stroke-linecap:round;stroke-linejoin:round"
   inkscape:export-filename="/tmp/ssa-banner.png"
   inkscape:export-xdpi="300.05853"
   inkscape:export-ydpi="300.05853"
   xmlns:inkscape="http://www.inkscape.org/namespaces/inkscape"
   xmlns:sodipodi="http://sodipodi.sourceforge.net/DTD/sodipodi-0.dtd"
   xmlns="http://www.w3.org/2000/svg"
   xmlns:svg="http://www.w3.org/2000/svg"
   xmlns:rdf="http://www.w3.org/1999/02/22-rdf-syntax-ns#"
   xmlns:cc="http://creativecommons.org/ns#"
   xmlns:dc="http://purl.org/dc/elements/1.1/"><metadata
   id="metadata23757"><rdf:RDF><cc:Work
       rdf:about=""><dc:format>image/svg+xml</dc:format><dc:type
         rdf:resource="http://purl.org/dc/dcmitype/StillImage" /></cc:Work></rdf:RDF></metadata><sodipodi:namedview
   pagecolor="#ffffff"
   bordercolor="#666666"
   borderopacity="1"
   objecttolerance="10"
   gridtolerance="10"
   guidetolerance="10"
   inkscape:pageopacity="0"
   inkscape:pageshadow="2"
   inkscape:window-width="1920"
   inkscape:window-height="1168"
   id="namedview23755"
   showgrid="false"
   inkscape:zoom="0.67907162"
   inkscape:cx="250.34178"
   inkscape:cy="352.68739"
   inkscape:window-x="0"
   inkscape:window-y="0"
   inkscape:window-maximized="1"
   inkscape:current-layer="g79749"
   inkscape:pagecheckerboard="0" />
<defs
   id="defs16139">
<clipPath
   id="clipId0">
<path
   d="M 0,768 H 1024 V 0 H 0 Z"
   id="path16136"
   inkscape:connector-curvature="0" />
</clipPath>













</defs>
<rect
   style="fill:#000000;fill-opacity:1;stroke:#000000;stroke-width:5.10337;stroke-linecap:round;stroke-linejoin:round"
   id="rect14434"
   width="874.03772"
   height="840.31348"
   x="-49.538246"
   y="-24.775101" /><g
   clip-path="url(#clipId0)"
   id="g16141"
   style="fill:none;stroke:#000000;stroke-width:0.1" />



<g
   id="g33600"
   transform="translate(1.159678e-5)"><g
     id="g79749"><text
       xml:space="preserve"
       style="font-style:normal;font-variant:normal;font-weight:normal;font-stretch:normal;font-size:85.3333px;line-height:0.85;font-family:'Federal Escort Scanlines';-inkscape-font-specification:'Federal Escort Scanlines, Normal';font-variant-ligatures:normal;font-variant-caps:normal;font-variant-numeric:normal;font-variant-east-asian:normal;text-align:center;letter-spacing:0px;word-spacing:0px;text-anchor:middle;fill:#894ba2;fill-opacity:1"
       x="383.06131"
       y="580.88922"
       id="text6038"><tspan
         sodipodi:role="line"
         x="383.06131"
         y="580.88922"
         id="tspan23588"
         style="font-style:normal;font-variant:normal;font-weight:normal;font-stretch:normal;font-size:85.3333px;font-family:'Federal Escort Halftone';-inkscape-font-specification:'Federal Escort Halftone';font-variant-ligatures:normal;font-variant-caps:normal;font-variant-numeric:normal;font-variant-east-asian:normal;fill:#894ba2;fill-opacity:1">SHOOTING</tspan></text><text
       xml:space="preserve"
       style="font-size:85.3333px;line-height:1.25;font-family:'Federal Escort Bullet';-inkscape-font-specification:'Federal Escort Bullet';letter-spacing:0px;word-spacing:0px"
       x="182.74159"
       y="644.23889"
       id="text27246"><tspan
         sodipodi:role="line"
         id="tspan27244"
         x="182.74159"
         y="644.23889"
         style="font-style:normal;font-variant:normal;font-weight:normal;font-stretch:normal;font-size:85.3333px;font-family:'Federal Escort Halftone';-inkscape-font-specification:'Federal Escort Halftone, Normal';font-variant-ligatures:normal;font-variant-caps:normal;font-variant-numeric:normal;font-variant-east-asian:normal;fill:#894ba2;fill-opacity:1">SPORTS</tspan></text><text
       xml:space="preserve"
       style="font-size:85.3333px;line-height:1.25;font-family:'Federal Escort Bullet';-inkscape-font-specification:'Federal Escort Bullet';letter-spacing:0px;word-spacing:0px;fill:#000000"
       x="146.09093"
       y="707.58856"
       id="text30340"><tspan
         sodipodi:role="line"
         id="tspan30338"
         x="146.09093"
         y="707.58856"
         style="font-style:normal;font-variant:normal;font-weight:normal;font-stretch:normal;font-size:85.3333px;font-family:'Federal Escort Halftone';-inkscape-font-specification:'Federal Escort Halftone';font-variant-ligatures:normal;font-variant-caps:normal;font-variant-numeric:normal;font-variant-east-asian:normal;fill:#894ba2;fill-opacity:1">ANALYST</tspan></text></g></g><g
   id="g24193"
   transform="matrix(0.68851199,0,0,0.68851199,118.75694,14.78173)"><g
     id="g12175"><path
       inkscape:connector-curvature="0"
       d="M 453.86459,172.0195 V 41.023486 M 314.13541,172.0195 V 41.023486 M 250.30538,704.73575 183.13972,570.40443 m 334.5549,134.33132 H 250.30538 M 584.86028,570.40443 517.69462,704.73575 M 584.86028,218.24241 V 570.40443 M 538.63737,172.0195 584.86028,218.24241 M 453.86459,172.0195 h 84.77278 M 183.13972,218.24241 V 570.40443 M 229.36263,172.0195 183.13972,218.24241 M 314.13541,172.0195 H 229.36263 M 314.13541,41.023486 h 139.72918"
       style="fill:#000000;fill-opacity:1;stroke:#000000;stroke-width:0.271631"
       id="polyline16165" /><path
       style="fill:#c19a6c;fill-opacity:1;stroke:#333333;stroke-width:0.784676;stroke-linecap:butt;stroke-linejoin:round;stroke-miterlimit:4;stroke-dasharray:none;stroke-opacity:1"
       d="M 319.15526,110.84713 V 45.97539 h 64.87173 64.87174 v 64.87174 64.87173 H 384.02699 319.15526 Z M 428.31069,89.09373 V 66.563426 h -44.2837 -44.2837 v 21.74291 l -0.0345,22.730954 h 44.49054 44.11139 z"
       id="path12318"
       inkscape:connector-curvature="0"
       sodipodi:nodetypes="cccccccccccccccccc" /><path
       style="fill:#c19a6c;fill-opacity:1;stroke:#333333;stroke-width:1.821;stroke-linecap:butt;stroke-linejoin:miter;stroke-miterlimit:4;stroke-dasharray:none;stroke-opacity:1"
       d="m 298.61195,569.25977 c -1.32571,-0.1877 -2.26643,-1.2637 -3.41482,-3.90586 -0.87178,-2.00573 -2.42119,-5.50271 -3.44313,-7.77107 -1.02194,-2.26836 -1.85808,-4.28917 -1.85808,-4.4907 0,-0.20153 -8.26088,-20.1952 -18.35752,-44.43037 L 253.1809,464.59781 V 342.30048 220.00316 l 4.88231,-3.29491 c 2.68528,-1.81219 4.99949,-3.58292 5.14271,-3.93495 0.14322,-0.35205 0.55304,-0.64007 0.91073,-0.64007 0.91473,0 31.5809,-20.38215 31.89844,-21.20117 0.14321,-0.36938 0.55059,-0.67161 0.90527,-0.67161 0.35469,0 5.41623,-3.16374 11.24788,-7.03054 l 10.60301,-7.03053 h 65.24531 65.24532 l 26.99382,17.96693 c 14.84659,9.8818 27.2949,17.96692 27.66289,17.96692 0.368,0 0.78626,0.28802 0.92949,0.64007 0.14321,0.35203 2.45742,2.12276 5.1427,3.93495 l 4.88231,3.29491 v 122.24689 122.2469 l -18.41802,44.30865 c -10.12991,24.36977 -18.8846,45.36324 -19.45484,46.65217 -0.57026,1.28893 -1.98174,4.62844 -3.13662,7.42112 -1.15489,2.79269 -2.37339,5.36621 -2.70776,5.71896 -0.56335,0.59428 -168.47224,1.23843 -172.5439,0.66192 z M 450.42651,342.19816 V 218.77318 h -66.39952 -66.39951 l -0.20062,122.64381 c -0.11034,67.45409 -0.0327,123.0852 0.17247,123.62469 0.29615,0.77859 14.03132,0.93968 66.60013,0.78116 l 66.22705,-0.1997 z"
       id="path12320"
       inkscape:connector-curvature="0" /><path
       style="fill:#c19a6c;fill-opacity:1;stroke:#333333;stroke-width:1.821;stroke-linecap:butt;stroke-linejoin:round;stroke-miterlimit:4;stroke-dasharray:none;stroke-opacity:1"
       d="M 384.41216,699.54844 253.50004,699.34971 221.06746,634.47898 188.63488,569.60826 V 394.99443 220.38061 l 21.57118,-21.56087 21.57119,-21.56086 41.55251,0.20112 41.55251,0.20113 -3.68892,2.33072 c -2.02891,1.2819 -3.68954,2.59293 -3.69031,2.9134 -7.7e-4,0.32048 -0.32996,0.58268 -0.73156,0.58268 -0.40159,0 -12.81268,8.04205 -27.5802,17.87122 l -26.85002,17.87123 v 123.19854 123.19854 l 7.86801,18.77886 c 4.32741,10.32836 9.95381,23.84817 12.50312,30.044 2.5493,6.19584 5.1165,12.31398 5.70489,13.59587 1.5062,3.28155 10.9319,26.03084 13.68054,33.01855 1.26061,3.20474 2.80297,6.61342 3.42748,7.57485 l 1.13548,1.74804 h 87.289 c 70.16407,0 87.45159,-0.19592 88.11776,-0.99861 0.45583,-0.54923 1.9361,-3.78311 3.2895,-7.18639 1.3534,-3.40328 3.1304,-7.67526 3.94888,-9.49328 0.81848,-1.81803 3.53552,-8.28578 6.03786,-14.37278 2.50234,-6.08701 10.35905,-24.96464 17.45933,-41.95031 l 12.90962,-30.88303 V 342.36241 219.22159 l -10.53364,-6.99013 c -5.79351,-3.84457 -10.83369,-6.99013 -11.20041,-6.99013 -0.36672,0 -0.7833,-0.30058 -0.92574,-0.66794 -0.31581,-0.81456 -30.81459,-21.08546 -31.72433,-21.08546 -0.35573,0 -0.76332,-0.27483 -0.90576,-0.61074 -0.14243,-0.33591 -1.39519,-1.40854 -2.78392,-2.38363 -1.38872,-0.97508 -2.52494,-2.09868 -2.52494,-2.49688 0,-0.43816 16.02849,-0.724 40.59859,-0.724 h 40.59859 l 21.55397,21.56428 21.55397,21.56428 v 174.60659 174.60659 l -32.26266,64.52161 c -17.74446,35.48689 -32.05776,64.85315 -31.80734,65.25834 0.25043,0.4052 0.34729,0.65034 0.21525,0.54477 -0.13204,-0.10558 -59.15054,-0.2814 -131.1522,-0.3907 z"
       id="path12322"
       inkscape:connector-curvature="0" /><path
       style="fill:#c19a6c;fill-opacity:1;stroke:#333333;stroke-width:4;stroke-linecap:butt;stroke-linejoin:round;stroke-miterlimit:4;stroke-dasharray:none;stroke-opacity:1"
       d="M 217.38133,637.20342 183.97344,570.3912 V 394.22081 218.05042 l 22.72938,-22.7196 22.72939,-22.71959 h 42.5308 42.53081 V 106.96259 41.313948 h 69.53317 69.53318 v 65.648642 65.64864 h 42.5406 42.5406 l 22.71959,22.72939 22.71959,22.72939 V 394.2306 570.3912 l -33.40789,66.81222 -33.4079,66.81221 H 384.02699 250.78923 Z m 297.5545,63.25861 c 0,-0.60931 0.34919,-1.10784 0.77598,-1.10784 0.97366,0 65.34952,-128.61919 64.70063,-129.26808 -0.26147,-0.26146 -0.0675,-0.47539 0.431,-0.47539 0.6879,0 0.90639,-42.16792 0.90639,-174.92992 V 219.75088 l -21.85335,-21.82178 -21.85336,-21.82178 -43.79088,-0.21299 -43.79088,-0.213 -0.19864,-65.43565 -0.19863,-65.43565 h -66.0371 -66.03709 l -0.19863,65.43565 -0.19864,65.43565 -43.79088,0.213 -43.79088,0.21299 -21.85336,21.82178 -21.85335,21.82178 V 394.6808 c 0,116.10201 0.26127,174.92992 0.77691,174.92992 0.42729,0 0.6895,0.34973 0.58268,0.77718 -0.33358,1.33476 63.45815,128.87309 64.48328,128.92095 0.53412,0.0249 0.97113,0.54146 0.97113,1.14782 0,0.94765 18.38442,1.10323 130.90883,1.10784 112.82695,0.005 130.90884,-0.14766 130.90884,-1.10248 z"
       id="path12324"
       inkscape:connector-curvature="0" /><path
       style="fill:#c19a6c;fill-opacity:1;stroke:#333333;stroke-width:1.82067;stroke-linecap:butt;stroke-linejoin:miter;stroke-miterlimit:4;stroke-dasharray:none;stroke-opacity:1"
       d="M 317.85901,342.36542 V 218.34996 h 66.16798 66.16799 v 124.01546 124.01546 h -66.16799 -66.16798 z"
       id="path12326"
       inkscape:connector-curvature="0" /><rect
       style="fill:#c19a6c;stroke:#333333;stroke-width:1.821;stroke-linejoin:miter;stroke-miterlimit:4;stroke-dasharray:none;stroke-opacity:1"
       id="rect11799"
       width="88.567429"
       height="44.473866"
       x="339.74329"
       y="66.563423" /><rect
       style="fill:#333333;stroke:#333333;stroke-width:0.536205;stroke-linejoin:miter;stroke-miterlimit:4;stroke-dasharray:none;stroke-opacity:1;fill-opacity:1"
       id="rect11925"
       width="3.6945114"
       height="3.6876202"
       x="452.1871"
       y="174.87511" /></g><g
     id="g5104"
     transform="matrix(0.98983261,0,0,0.98983261,143.21129,202.46896)"
     inkscape:export-filename="/home/jay/line-go-up.png"
     inkscape:export-xdpi="300.05853"
     inkscape:export-ydpi="300.05853"><path
       id="path5007"
       d="m 453.98,86.378 -81.609,87.663 c 3.945,4.79 6.315,10.926 6.315,17.617 0,14.025 -10.413,25.611 -23.929,27.466 V 503.56 H 471.016 V 93.123 c -6.507,-0.257 -12.433,-2.756 -17.036,-6.745 z"
       style="fill:#3fc8f2"
       inkscape:connector-curvature="0" /><path
       id="path5009"
       d="m 453.98,86.378 -16.723,17.964 V 503.56 h 33.758 V 93.123 c -6.506,-0.257 -12.432,-2.756 -17.035,-6.745 z"
       style="fill:#0daace"
       inkscape:connector-curvature="0" /><path
       id="path5011"
       d="m 350.953,219.391 c -5.977,0 -11.509,-1.897 -16.037,-5.114 l -73.081,78.503 c 3.977,4.799 6.367,10.96 6.367,17.679 0,15.316 -12.415,27.732 -27.732,27.732 -0.324,0 -0.644,-0.013 -0.965,-0.024 V 503.56 H 354.756 V 219.125 c -1.244,0.171 -2.512,0.266 -3.803,0.266 z"
       style="fill:#894ba2"
       inkscape:connector-curvature="0" /><path
       id="path5013"
       d="m 350.953,219.391 c -5.977,0 -11.509,-1.898 -16.037,-5.116 l -13.917,14.95 V 503.56 h 33.758 V 219.125 c -1.245,0.171 -2.513,0.266 -3.804,0.266 z"
       style="fill:#763794"
       inkscape:connector-curvature="0" /><path
       id="path5015"
       d="m 212.739,310.458 c 0,-5.038 1.35,-9.757 3.698,-13.83 L 145.31,234.541 c -5.051,5.3 -12.174,8.609 -20.074,8.609 -0.327,0 -0.653,-0.014 -0.978,-0.025 V 503.56 H 239.505 V 338.165 c -14.868,-0.509 -26.766,-12.714 -26.766,-27.707 z"
       style="fill:#f77935"
       inkscape:connector-curvature="0" /><path
       id="path5017"
       d="m 212.739,310.458 c 0,-5.038 1.35,-9.757 3.698,-13.83 l -9.565,-8.348 v 215.28 h 32.633 V 338.165 c -14.868,-0.509 -26.766,-12.714 -26.766,-27.707 z"
       style="fill:#d9510d"
       inkscape:connector-curvature="0" /><path
       id="path5019"
       d="M 108.1,237.215 9.002,366.315 V 503.56 H 124.257 V 243.127 c -6.091,-0.213 -11.679,-2.387 -16.157,-5.912 z"
       style="fill:#ffdb56"
       inkscape:connector-curvature="0" /><path
       id="path5021"
       d="m 108.1,237.215 -17.6,22.93 V 503.56 h 33.758 V 243.127 c -6.092,-0.213 -11.68,-2.387 -16.158,-5.912 z"
       style="fill:#fba806"
       inkscape:connector-curvature="0" /><g
       id="g5031">
	<circle
   id="circle5023"
   r="27.731001"
   cy="215.423"
   cx="125.232"
   style="fill:#ffffff;fill-opacity:1" />
	<circle
   id="circle5025"
   r="27.731001"
   cy="310.452"
   cx="240.47099"
   style="fill:#ffffff;fill-opacity:1" />
	<circle
   id="circle5027"
   r="27.731001"
   cy="191.657"
   cx="350.95099"
   style="fill:#ffffff;fill-opacity:1" />
	<circle
   id="circle5029"
   r="27.731001"
   cy="65.422997"
   cx="472.13199"
   style="fill:#ffffff;fill-opacity:1" />
</g><path
       id="path5035"
       d="M 502.998,495.121 H 479.455 V 100.843 c 16.444,-3.397 28.844,-17.99 28.844,-35.425 0,-19.945 -16.226,-36.172 -36.172,-36.172 -19.944,0 -36.17,16.226 -36.17,36.172 0,7.749 2.456,14.929 6.621,20.821 l -70.699,75.944 c -5.912,-4.21 -13.132,-6.697 -20.927,-6.697 -19.944,0 -36.17,16.226 -36.17,36.172 0,8.721 3.102,16.731 8.261,22.984 l -61.713,66.292 c -5.9,-4.18 -13.095,-6.648 -20.859,-6.648 -9.754,0 -18.612,3.888 -25.125,10.186 L 156.68,233.263 c 3.002,-5.27 4.727,-11.359 4.727,-17.846 0,-19.946 -16.226,-36.171 -36.171,-36.171 -19.945,0 -36.171,16.226 -36.171,36.171 0,8.494 2.949,16.305 7.868,22.484 L 17.441,341.461 0.561,361.39329 V 366.315 503.56 c 0,4.662 3.779,8.44 8.44,8.44 h 115.255 115.247 115.251 116.259 31.984 c 4.662,0 8.44,-3.778 8.44,-8.44 0,-4.662 -3.777,-8.439 -8.439,-8.439 z M 472.127,46.126 c 10.637,0 19.293,8.654 19.293,19.293 0,10.637 -8.654,19.293 -19.293,19.293 -0.468,0 -0.927,-0.037 -1.387,-0.071 -0.277,-0.019 -0.555,-0.036 -0.829,-0.068 -0.43,-0.05 -0.853,-0.118 -1.274,-0.195 -0.148,-0.027 -0.3,-0.044 -0.448,-0.074 -0.602,-0.125 -1.195,-0.277 -1.776,-0.458 -0.029,-0.009 -0.056,-0.02 -0.086,-0.029 -0.549,-0.173 -1.087,-0.371 -1.615,-0.592 -0.093,-0.039 -0.185,-0.083 -0.277,-0.124 -0.452,-0.198 -0.897,-0.412 -1.331,-0.643 -0.125,-0.066 -0.248,-0.136 -0.371,-0.205 -0.386,-0.216 -0.763,-0.447 -1.132,-0.689 -0.147,-0.097 -0.296,-0.194 -0.441,-0.295 -0.333,-0.231 -0.655,-0.477 -0.972,-0.728 -0.154,-0.123 -0.312,-0.241 -0.462,-0.369 -4.206,-3.541 -6.888,-8.839 -6.888,-14.755 -0.002,-10.635 8.652,-19.291 19.289,-19.291 z M 350.953,172.367 c 7.969,0 14.824,4.858 17.762,11.767 0.009,0.021 0.017,0.043 0.026,0.064 0.224,0.533 0.423,1.079 0.6,1.635 0.021,0.068 0.042,0.134 0.062,0.201 0.154,0.504 0.285,1.02 0.397,1.539 0.024,0.111 0.051,0.221 0.072,0.332 0.097,0.486 0.168,0.981 0.226,1.481 0.016,0.134 0.038,0.267 0.052,0.401 0.06,0.617 0.095,1.24 0.095,1.871 0,0.63 -0.035,1.251 -0.095,1.866 -0.026,0.269 -0.074,0.532 -0.111,0.798 -0.046,0.334 -0.089,0.668 -0.153,0.997 -0.065,0.338 -0.151,0.668 -0.234,0.999 -0.061,0.242 -0.117,0.486 -0.187,0.726 -0.108,0.368 -0.232,0.728 -0.361,1.087 -0.068,0.19 -0.134,0.38 -0.208,0.567 -0.15,0.379 -0.313,0.751 -0.486,1.117 -0.073,0.155 -0.147,0.311 -0.224,0.464 -0.19,0.377 -0.392,0.748 -0.604,1.112 -0.079,0.133 -0.16,0.264 -0.241,0.395 -0.227,0.367 -0.464,0.726 -0.713,1.076 -0.086,0.119 -0.176,0.234 -0.263,0.352 -0.261,0.347 -0.528,0.689 -0.811,1.017 -0.096,0.11 -0.197,0.216 -0.295,0.324 -0.289,0.322 -0.584,0.639 -0.893,0.941 -0.107,0.104 -0.222,0.2 -0.332,0.302 -0.315,0.293 -0.634,0.584 -0.969,0.855 -0.11,0.09 -0.23,0.169 -0.342,0.257 -0.695,0.539 -1.428,1.032 -2.195,1.474 -0.108,0.062 -0.21,0.135 -0.321,0.195 -0.249,0.136 -0.511,0.252 -0.765,0.377 -0.285,0.141 -0.565,0.287 -0.857,0.414 -0.266,0.115 -0.54,0.209 -0.811,0.313 -0.291,0.11 -0.582,0.226 -0.881,0.323 -0.295,0.096 -0.598,0.172 -0.898,0.254 -0.282,0.077 -0.564,0.155 -0.852,0.219 -0.33,0.073 -0.665,0.129 -1,0.185 -0.293,0.05 -0.585,0.099 -0.881,0.135 -0.216,0.026 -0.431,0.048 -0.645,0.068 -0.549,0.047 -1.101,0.084 -1.661,0.084 -0.602,0 -1.196,-0.036 -1.785,-0.09 -0.17,-0.016 -0.339,-0.038 -0.507,-0.059 -0.437,-0.052 -0.87,-0.117 -1.296,-0.198 -0.163,-0.03 -0.327,-0.061 -0.49,-0.096 -0.515,-0.111 -1.023,-0.241 -1.522,-0.393 -0.052,-0.016 -0.105,-0.027 -0.156,-0.043 -0.566,-0.178 -1.119,-0.383 -1.66,-0.609 -0.109,-0.046 -0.216,-0.099 -0.325,-0.147 -0.416,-0.183 -0.826,-0.38 -1.227,-0.592 -0.156,-0.083 -0.312,-0.169 -0.466,-0.255 -0.356,-0.2 -0.702,-0.413 -1.043,-0.635 -0.149,-0.097 -0.299,-0.191 -0.447,-0.293 -5.047,-3.483 -8.365,-9.3 -8.365,-15.882 -0.006,-10.637 8.649,-19.292 19.286,-19.292 z M 240.47,291.166 c 7.313,0 13.689,4.09 16.96,10.104 0,0.001 10e-4,0.002 10e-4,0.003 0.29,0.533 0.555,1.084 0.794,1.646 0.013,0.033 0.027,0.065 0.04,0.098 0.219,0.523 0.415,1.06 0.589,1.606 0.023,0.071 0.045,0.141 0.066,0.212 0.153,0.503 0.282,1.015 0.395,1.535 0.024,0.111 0.051,0.221 0.072,0.332 0.097,0.487 0.168,0.983 0.227,1.483 0.016,0.134 0.038,0.266 0.052,0.399 0.06,0.617 0.095,1.241 0.095,1.874 0,10.637 -8.654,19.293 -19.293,19.293 -0.379,0 -0.748,-0.035 -1.122,-0.056 -0.417,-0.024 -0.833,-0.054 -1.243,-0.104 -0.271,-0.034 -0.538,-0.079 -0.805,-0.124 -0.335,-0.054 -0.67,-0.111 -0.998,-0.182 -0.379,-0.083 -0.752,-0.183 -1.122,-0.289 -0.198,-0.055 -0.398,-0.108 -0.594,-0.17 -0.522,-0.168 -1.036,-0.354 -1.539,-0.565 -0.035,-0.015 -0.07,-0.027 -0.104,-0.041 -6.908,-2.939 -11.766,-9.793 -11.766,-17.762 0,-0.584 0.037,-1.16 0.088,-1.731 0.014,-0.15 0.027,-0.299 0.044,-0.449 0.062,-0.547 0.142,-1.088 0.248,-1.62 0.024,-0.116 0.055,-0.231 0.081,-0.347 0.097,-0.439 0.209,-0.872 0.335,-1.3 0.047,-0.161 0.095,-0.323 0.146,-0.483 0.165,-0.51 0.345,-1.012 0.55,-1.502 0.038,-0.091 0.083,-0.18 0.123,-0.271 0.19,-0.435 0.396,-0.862 0.618,-1.279 0.062,-0.116 0.122,-0.233 0.186,-0.348 3.296,-5.934 9.621,-9.962 16.876,-9.962 z m -115.235,-95.04 c 10.638,0 19.292,8.654 19.292,19.292 0,5.242 -2.108,9.996 -5.513,13.476 -0.218,0.224 -0.449,0.431 -0.676,0.643 -0.249,0.231 -0.492,0.467 -0.753,0.684 -0.168,0.141 -0.345,0.267 -0.518,0.401 -0.341,0.266 -0.68,0.535 -1.039,0.778 -0.043,0.029 -0.089,0.054 -0.133,0.082 -3.057,2.036 -6.721,3.228 -10.662,3.228 -0.46,0 -0.911,-0.037 -1.364,-0.069 -0.262,-0.018 -0.526,-0.029 -0.787,-0.059 -0.547,-0.061 -1.087,-0.142 -1.619,-0.248 -0.183,-0.036 -0.362,-0.087 -0.544,-0.128 -0.398,-0.091 -0.794,-0.189 -1.183,-0.305 -0.19,-0.056 -0.377,-0.119 -0.565,-0.181 -0.387,-0.128 -0.77,-0.268 -1.146,-0.42 -0.162,-0.065 -0.324,-0.129 -0.484,-0.199 -0.434,-0.19 -0.861,-0.396 -1.277,-0.617 -0.091,-0.048 -0.186,-0.09 -0.277,-0.141 -0.515,-0.282 -1.016,-0.586 -1.502,-0.914 -0.07,-0.047 -0.136,-0.101 -0.206,-0.15 -5.032,-3.485 -8.341,-9.293 -8.341,-15.864 0.005,-10.634 8.66,-19.289 19.297,-19.289 z m -0.978,163.164 c -4.661,0 -8.44,3.778 -8.44,8.44 V 495.121 H 17.442 v -125.94 l 92.767,-120.852 c 0.152,0.07 0.311,0.122 0.464,0.189 0.707,0.313 1.421,0.61 2.152,0.878 0.181,0.066 0.365,0.123 0.547,0.186 0.698,0.243 1.405,0.465 2.121,0.665 0.11,0.03 0.217,0.073 0.327,0.102 v 83.623 c 0,4.662 3.779,8.44 8.44,8.44 4.661,0 8.44,-3.778 8.44,-8.44 v -83.144 c 4.461,-0.928 8.676,-2.689 12.468,-5.209 l 61.034,53.276 c -0.016,0.047 -0.027,0.097 -0.043,0.145 -0.293,0.875 -0.556,1.763 -0.781,2.667 -10e-4,0.007 -0.003,0.012 -0.005,0.019 -0.225,0.905 -0.414,1.824 -0.569,2.754 -0.009,0.054 -0.02,0.108 -0.029,0.163 -0.143,0.878 -0.25,1.767 -0.329,2.664 -0.013,0.158 -0.025,0.315 -0.036,0.473 -0.065,0.886 -0.11,1.777 -0.11,2.679 0,0.587 0.017,1.17 0.045,1.75 0.007,0.138 0.018,0.275 0.026,0.413 0.027,0.466 0.062,0.928 0.106,1.39 0.01,0.108 0.023,0.215 0.034,0.323 0.057,0.542 0.126,1.08 0.206,1.615 10e-4,0.007 0.002,0.012 0.003,0.019 2.155,14.282 12.559,25.78 26.347,29.435 V 495.123 H 132.699 V 367.73 c -0.002,-4.662 -3.781,-8.44 -8.442,-8.44 z m 238.939,135.831 v -47.824 c 0,-4.662 -3.778,-8.44 -8.44,-8.44 -4.662,0 -8.44,3.778 -8.44,8.44 v 47.824 H 247.944 V 345.853 c 0.514,-0.108 1.025,-0.228 1.531,-0.359 0.092,-0.024 0.182,-0.053 0.275,-0.077 0.451,-0.119 0.899,-0.245 1.342,-0.383 0.189,-0.059 0.375,-0.123 0.563,-0.185 0.344,-0.113 0.688,-0.226 1.026,-0.348 0.206,-0.074 0.408,-0.152 0.612,-0.23 0.32,-0.122 0.637,-0.245 0.952,-0.376 0.205,-0.084 0.408,-0.172 0.611,-0.26 0.312,-0.135 0.62,-0.276 0.926,-0.42 0.196,-0.092 0.392,-0.185 0.586,-0.279 0.317,-0.156 0.631,-0.318 0.944,-0.484 0.174,-0.092 0.351,-0.182 0.524,-0.278 0.36,-0.198 0.713,-0.404 1.067,-0.613 0.118,-0.071 0.24,-0.137 0.358,-0.209 0.471,-0.287 0.935,-0.585 1.392,-0.893 0.074,-0.05 0.145,-0.104 0.219,-0.154 0.377,-0.259 0.751,-0.523 1.117,-0.796 0.145,-0.108 0.287,-0.221 0.431,-0.331 0.291,-0.224 0.582,-0.45 0.868,-0.682 0.156,-0.128 0.311,-0.259 0.465,-0.389 0.266,-0.224 0.529,-0.451 0.789,-0.683 0.155,-0.138 0.309,-0.279 0.462,-0.421 0.254,-0.235 0.505,-0.476 0.753,-0.718 0.145,-0.142 0.291,-0.285 0.434,-0.429 0.258,-0.26 0.509,-0.527 0.757,-0.794 0.124,-0.133 0.249,-0.263 0.37,-0.397 0.302,-0.334 0.595,-0.675 0.883,-1.02 0.062,-0.073 0.126,-0.145 0.188,-0.219 0.35,-0.425 0.691,-0.859 1.022,-1.3 0.074,-0.098 0.143,-0.2 0.216,-0.299 0.251,-0.342 0.498,-0.685 0.737,-1.036 0.106,-0.155 0.208,-0.315 0.312,-0.473 0.198,-0.3 0.395,-0.603 0.584,-0.91 0.11,-0.178 0.216,-0.358 0.323,-0.538 0.176,-0.295 0.347,-0.592 0.513,-0.892 0.105,-0.188 0.207,-0.376 0.308,-0.566 0.162,-0.304 0.318,-0.612 0.473,-0.92 0.093,-0.188 0.188,-0.375 0.278,-0.565 0.158,-0.333 0.308,-0.67 0.456,-1.007 0.074,-0.17 0.152,-0.336 0.223,-0.507 0.186,-0.442 0.361,-0.889 0.529,-1.34 0.026,-0.07 0.055,-0.138 0.081,-0.208 0.191,-0.522 0.37,-1.051 0.537,-1.584 0.048,-0.154 0.091,-0.312 0.137,-0.467 0.114,-0.38 0.225,-0.762 0.326,-1.147 0.053,-0.203 0.1,-0.406 0.151,-0.609 0.084,-0.344 0.165,-0.691 0.241,-1.039 0.047,-0.219 0.09,-0.441 0.133,-0.662 0.066,-0.34 0.127,-0.681 0.183,-1.023 0.037,-0.225 0.073,-0.451 0.106,-0.677 0.051,-0.35 0.095,-0.703 0.135,-1.057 0.025,-0.219 0.052,-0.438 0.073,-0.658 0.037,-0.387 0.064,-0.776 0.089,-1.167 0.012,-0.188 0.028,-0.375 0.037,-0.564 0.028,-0.581 0.045,-1.164 0.045,-1.75 0,-0.694 -0.025,-1.383 -0.063,-2.067 -0.01,-0.168 -0.026,-0.334 -0.038,-0.501 -0.038,-0.538 -0.086,-1.074 -0.147,-1.605 -0.018,-0.159 -0.039,-0.317 -0.061,-0.475 -0.073,-0.566 -0.159,-1.128 -0.258,-1.685 -0.02,-0.111 -0.039,-0.223 -0.06,-0.334 -0.125,-0.668 -0.266,-1.331 -0.428,-1.986 v -0.002 c -0.345,-1.4 -0.771,-2.767 -1.275,-4.098 -0.024,-0.064 -0.051,-0.127 -0.075,-0.19 -0.21,-0.548 -0.434,-1.09 -0.671,-1.625 -0.08,-0.182 -0.163,-0.363 -0.246,-0.545 -0.186,-0.401 -0.378,-0.798 -0.577,-1.191 -0.078,-0.154 -0.145,-0.312 -0.225,-0.465 l 64.073,-68.826 c 0.074,0.033 0.151,0.056 0.225,0.089 0.612,0.261 1.232,0.504 1.861,0.731 0.273,0.099 0.55,0.188 0.826,0.28 0.441,0.147 0.886,0.287 1.335,0.419 0.277,0.081 0.552,0.162 0.83,0.236 0.672,0.179 1.348,0.343 2.035,0.483 0.178,0.036 0.358,0.062 0.536,0.096 0.572,0.108 1.147,0.203 1.726,0.282 0.118,0.016 0.234,0.043 0.352,0.057 v 186.003 c 0,4.662 3.778,8.44 8.44,8.44 4.662,0 8.44,-3.778 8.44,-8.44 V 225.694 c 0.857,-0.309 1.697,-0.656 2.524,-1.027 l 0.12,-0.054 c 11.644,-5.282 20.01,-16.552 21.144,-29.859 0.015,-0.164 0.026,-0.329 0.038,-0.494 0.062,-0.86 0.104,-1.724 0.104,-2.599 0,-0.692 -0.024,-1.378 -0.063,-2.06 -0.009,-0.165 -0.026,-0.331 -0.038,-0.496 -0.038,-0.538 -0.086,-1.072 -0.146,-1.604 -0.018,-0.155 -0.039,-0.311 -0.06,-0.466 -0.072,-0.565 -0.158,-1.125 -0.255,-1.681 -0.019,-0.11 -0.038,-0.222 -0.06,-0.332 -0.122,-0.655 -0.26,-1.304 -0.416,-1.947 -0.003,-0.012 -0.006,-0.026 -0.009,-0.038 -0.343,-1.399 -0.767,-2.767 -1.268,-4.097 -0.012,-0.033 -0.027,-0.065 -0.039,-0.099 -0.219,-0.578 -0.456,-1.149 -0.703,-1.713 -0.075,-0.172 -0.154,-0.343 -0.233,-0.514 -0.189,-0.411 -0.385,-0.817 -0.589,-1.22 -0.071,-0.142 -0.133,-0.287 -0.206,-0.428 l 72.211,-77.569 c 0.026,0.014 0.052,0.025 0.078,0.038 2.283,1.203 4.709,2.167 7.248,2.864 v 394.822 z"
       inkscape:connector-curvature="0"
       sodipodi:nodetypes="sccsssccssccsccsssccccssccccsssssscccccccccccccccssccccccccsccccccccccccccccccccccccccccccscccccccccccccssccccccccccssccccccccsccccccccccsssccccccscccccccccccccssscccccccccsssccccccscccsccccccccccscssscccccccccccccccccccccccccccccccccccccccccccccccccccccccccscccccccccccccccccsccccccssscccccsccccccccccccccccccc"
       style="stroke-width:1.00071661;stroke-miterlimit:4;stroke-dasharray:none;stroke:none;stroke-opacity:1;fill:#333333;fill-opacity:1" /><g
       id="g5037">
</g><g
       id="g5039">
</g><g
       id="g5041">
</g><g
       id="g5043">
</g><g
       id="g5045">
</g><g
       id="g5047">
</g><g
       id="g5049">
</g><g
       id="g5051">
</g><g
       id="g5053">
</g><g
       id="g5055">
</g><g
       id="g5057">
</g><g
       id="g5059">
</g><g
       id="g5061">
</g><g
       id="g5063">
</g><g
       id="g5065">
</g><circle
       id="circle5023-9"
       r="27.731001"
       cy="360.99542"
       cx="14.047416"
       style="fill:#ffffff;fill-opacity:1;fill-rule:evenodd;stroke-width:1;stroke-linecap:round;stroke-linejoin:round" /><circle
       id="circle5023-9-4"
       r="27.731001"
       cy="360.99542"
       cx="14.047415"
       style="fill:none;fill-opacity:1;fill-rule:evenodd;stroke:#333333;stroke-width:17.1746;stroke-linecap:round;stroke-linejoin:round;stroke-miterlimit:4;stroke-dasharray:none;stroke-opacity:1" /></g></g></svg>
