<?xml version="1.0" encoding="UTF-8" standalone="no"?>
<svg
   viewBox="0 0 768 768"
   version="1.1"
   xml:space="preserve"
   id="svg23753"
   sodipodi:docname="icon-line-only.svg"
   inkscape:version="1.1.2 (0a00cf5339, 2022-02-04)"
   width="768"
   height="768"
   style="fill-rule:evenodd;stroke-linecap:round;stroke-linejoin:round"
   inkscape:export-filename="/home/jay/ssa-nobg.png"
   inkscape:export-xdpi="300.05853"
   inkscape:export-ydpi="300.05853"
   xmlns:inkscape="http://www.inkscape.org/namespaces/inkscape"
   xmlns:sodipodi="http://sodipodi.sourceforge.net/DTD/sodipodi-0.dtd"
   xmlns="http://www.w3.org/2000/svg"
   xmlns:svg="http://www.w3.org/2000/svg"
   xmlns:rdf="http://www.w3.org/1999/02/22-rdf-syntax-ns#"
   xmlns:cc="http://creativecommons.org/ns#"
   xmlns:dc="http://purl.org/dc/elements/1.1/"><metadata
   id="metadata23757"><rdf:RDF><cc:Work
       rdf:about=""><dc:format>image/svg+xml</dc:format><dc:type
         rdf:resource="http://purl.org/dc/dcmitype/StillImage" /></cc:Work></rdf:RDF></metadata><sodipodi:namedview
   pagecolor="#ffffff"
   bordercolor="#666666"
   borderopacity="1"
   objecttolerance="10"
   gridtolerance="10"
   guidetolerance="10"
   inkscape:pageopacity="0"
   inkscape:pageshadow="2"
   inkscape:window-width="1920"
   inkscape:window-height="1168"
   id="namedview23755"
   showgrid="false"
   inkscape:zoom="0.35409903"
   inkscape:cx="-672.12836"
   inkscape:cy="207.56905"
   inkscape:window-x="0"
   inkscape:window-y="0"
   inkscape:window-maximized="1"
   inkscape:current-layer="g19301"
   inkscape:pagecheckerboard="0"
   showguides="true"
   inkscape:guide-bbox="true"><sodipodi:guide
     position="288.11092,-1.6677528"
     orientation="0,-1"
     id="guide16469" /></sodipodi:namedview>
<defs
   id="defs16139">
<clipPath
   id="clipId0">
<path
   d="M 0,768 H 1024 V 0 H 0 Z"
   id="path16136"
   inkscape:connector-curvature="0" />
</clipPath>













</defs>
<g
   clip-path="url(#clipId0)"
   id="g16141"
   style="fill:none;stroke:#000000;stroke-width:0.1" />



<g
   id="g5037"
   transform="matrix(0.98983261,0,0,0.98983261,143.21129,202.46896)">
</g><g
   id="g5039"
   transform="matrix(0.98983261,0,0,0.98983261,143.21129,202.46896)">
</g><g
   id="g5041"
   transform="matrix(0.98983261,0,0,0.98983261,143.21129,202.46896)">
</g><g
   id="g5043"
   transform="matrix(0.98983261,0,0,0.98983261,143.21129,202.46896)">
</g><g
   id="g5045"
   transform="matrix(0.98983261,0,0,0.98983261,143.21129,202.46896)">
</g><g
   id="g5047"
   transform="matrix(0.98983261,0,0,0.98983261,143.21129,202.46896)">
</g><g
   id="g5049"
   transform="matrix(0.98983261,0,0,0.98983261,143.21129,202.46896)">
</g><g
   id="g5051"
   transform="matrix(0.98983261,0,0,0.98983261,143.21129,202.46896)">
</g><g
   id="g5053"
   transform="matrix(0.98983261,0,0,0.98983261,143.21129,202.46896)">
</g><g
   id="g5055"
   transform="matrix(0.98983261,0,0,0.98983261,143.21129,202.46896)">
</g><g
   id="g5057"
   transform="matrix(0.98983261,0,0,0.98983261,143.21129,202.46896)">
</g><g
   id="g5059"
   transform="matrix(0.98983261,0,0,0.98983261,143.21129,202.46896)">
</g><g
   id="g5061"
   transform="matrix(0.98983261,0,0,0.98983261,143.21129,202.46896)">
</g><g
   id="g5063"
   transform="matrix(0.98983261,0,0,0.98983261,143.21129,202.46896)">
</g><g
   id="g5065"
   transform="matrix(0.98983261,0,0,0.98983261,143.21129,202.46896)">
</g><g
   id="g19301"
   inkscape:export-filename="/home/jay/line-go-up-nobg.png"
   inkscape:export-xdpi="300.05853"
   inkscape:export-ydpi="300.05853"
   transform="translate(0,-126.90754)"><g
     id="g1550"
     inkscape:export-filename="/home/jay/line-go-up-nobg.png"
     inkscape:export-xdpi="300.05853"
     inkscape:export-ydpi="300.05853"><path
       id="path5019"
       d="m 250.2122,437.2721 -70.64382,100.1772 -2.38636,32.41909 -18.79081,24.26059 0,302.44631 h 107.81371 l 0,-453.4513 c -6.02907,-0.21083 -11.56025,-2.36273 -15.99272,-5.85189 z"
       style="fill:#ffdb56;stroke-width:0.989833"
       inkscape:connector-curvature="0"
       sodipodi:nodetypes="cccccccc" /><path
       id="path5007"
       d="m 592.5755,287.96872 -80.77925,86.7717 c 3.90489,4.7413 6.25079,10.81491 6.25079,17.43788 0,13.8824 -10.30713,25.3506 -23.6857,27.18674 l 0,477.21025 h 115.07695 l 0,-601.93015 c -6.44084,-0.25438 -12.30659,-2.72798 -16.86279,-6.67642 z"
       style="fill:#3fc8f2;stroke-width:0.989833"
       inkscape:connector-curvature="0"
       sodipodi:nodetypes="ccsccccc" /><path
       id="path5009"
       d="m 592.5755,287.96872 -16.55297,17.78135 0,590.82522 h 33.41477 l 0,-601.93015 c -6.43985,-0.25438 -12.3056,-2.72798 -16.8618,-6.67642 z"
       style="fill:#0daace;stroke-width:0.989833"
       inkscape:connector-curvature="0"
       sodipodi:nodetypes="cccccc" /><path
       id="path5011"
       d="m 490.59601,419.62933 c -5.91623,0 -11.39198,-1.87772 -15.87394,-5.06201 l -72.33796,77.70483 c 3.93657,4.75021 6.30227,10.84857 6.30227,17.49925 0,15.16028 -12.28878,27.45004 -27.45004,27.45004 -0.32071,0 -0.63745,-0.0129 -0.95519,-0.0238 l 0,359.37765 h 114.0792 l 0,-477.20926 c -1.23135,0.16926 -2.48646,0.2633 -3.76434,0.2633 z"
       style="fill:#894ba2;stroke-width:0.989833"
       inkscape:connector-curvature="0"
       sodipodi:nodetypes="sccssccccs" /><path
       id="path5013"
       d="m 490.59601,419.62933 c -5.91623,0 -11.39198,-1.87871 -15.87394,-5.06399 l -13.7755,14.798 0,467.21195 h 33.41477 l 0,-477.20926 c -1.23234,0.16926 -2.48745,0.2633 -3.76533,0.2633 z"
       style="fill:#763794;stroke-width:0.989833"
       inkscape:connector-curvature="0"
       sodipodi:nodetypes="scccccs" /><path
       id="path5015"
       d="m 353.78729,509.77041 c 0,-4.98677 1.33627,-9.65779 3.6604,-13.68938 l -70.40382,-61.45574 c -4.99965,5.24611 -12.05023,8.52147 -19.8699,8.52147 -0.32368,0 -0.64636,-0.0139 -0.96806,-0.0247 l 0,453.45323 h 114.07524 l 0,-359.37959 c -14.71683,-0.50382 -26.49386,-12.58473 -26.49386,-27.42529 z"
       style="fill:#f77935;stroke-width:0.989833"
       inkscape:connector-curvature="0"
       sodipodi:nodetypes="sccsccccs" /><path
       id="path5017"
       d="m 353.78729,509.77041 c 0,-4.98677 1.33627,-9.65779 3.6604,-13.68938 l -9.46775,-8.26313 0,408.75739 h 32.30121 l 0,-359.37959 c -14.71683,-0.50382 -26.49386,-12.58473 -26.49386,-27.42529 z"
       style="fill:#d9510d;stroke-width:0.989833"
       inkscape:connector-curvature="0"
       sodipodi:nodetypes="scccccs" /><path
       id="path5021"
       d="m 250.2122,437.2721 -17.42106,22.69686 v 436.60633 h 33.41477 v -453.4513 c -6.03006,-0.21083 -11.56124,-2.36273 -15.99371,-5.85189 z"
       style="fill:#fba806;stroke-width:0.989833"
       inkscape:connector-curvature="0"
       sodipodi:nodetypes="cccccc" /><g
       id="g5031"
       transform="matrix(0.98983261,0,0,0.98983261,143.21129,202.46896)">
	<circle
   id="circle5023"
   r="27.731001"
   cy="215.423"
   cx="125.232"
   style="fill:none;fill-opacity:1;stroke:none" />
	<circle
   id="circle5025"
   r="27.731001"
   cy="310.452"
   cx="240.47099"
   style="fill:none;fill-opacity:1" />
	<circle
   id="circle5027"
   r="27.731001"
   cy="191.657"
   cx="350.95099"
   style="fill:none;fill-opacity:1" />
	<circle
   id="circle5029"
   r="27.731001"
   cy="65.422997"
   cx="472.13199"
   style="fill:none;fill-opacity:1" />
</g><path
       id="path5035"
       style="stroke-width:0.989833"
       d="m 486.00586,896.57529 h 16.70898 l 0,-251.35654 c 0,-4.6146 -3.74087,-8.35547 -8.35546,-8.35547 -4.6146,0 -8.35352,3.74087 -8.35352,8.35547 z"
       sodipodi:nodetypes="ccsssc" /><path
       id="path18452"
       style="stroke-width:0.989833"
       d="m 257.85156,896.57529 h 16.70899 l 0,-330.11435 c -0.002,-4.6146 -3.74186,-8.35547 -8.35547,-8.35547 -4.61361,0 -8.35352,3.74087 -8.35352,8.35547 z"
       sodipodi:nodetypes="cccssc" /><path
       id="path18448"
       style="stroke-width:0.989833"
       d="m 610.53711,231.41797 c -19.74122,0 -35.80078,16.06149 -35.80078,35.80469 0,7.67021 2.43007,14.77728 6.55273,20.60937 l -69.98047,75.17188 c -5.85189,-4.16719 -12.99714,-6.62891 -20.71289,-6.62891 -19.74122,0 -35.80273,16.05953 -35.80273,35.80273 0,8.63233 3.07118,16.56058 8.17773,22.75 l -61.08593,65.61915 c -5.84002,-4.1375 -12.96143,-6.58008 -20.64649,-6.58008 -9.65483,0 -18.42431,3.84807 -24.87109,10.08203 l -58.06836,-50.68945 c 2.97148,-5.21641 4.67773,-11.24302 4.67773,-17.66407 0,-19.7432 -16.06052,-35.80273 -35.80273,-35.80273 -19.74221,0 -35.80274,16.06052 -35.80274,35.80273 0,8.40764 2.91813,16.13968 7.78711,22.25586 l -67.82422,88.36133 -0.35351,13.05664 8.43945,21.69531 -8.25,18.54688 -27.4043,0.83984 0,316.12412 h 16.71094 l 0,-312.0167 24.73828,-10.02343 -6.80078,-31.19141 6.15821,-6.83789 67.72656,-88.23242 c 0.15046,0.0693 0.3095,0.12118 0.46094,0.1875 0.69982,0.30982 1.40534,0.60387 2.1289,0.86914 0.17916,0.0653 0.36087,0.12123 0.54102,0.18359 0.69091,0.24053 1.39089,0.46024 2.09961,0.65821 0.10888,0.0297 0.21534,0.0729 0.32422,0.10156 v 82.77148 c 0,4.6146 3.7399,8.35547 8.35351,8.35547 4.61361,0 8.35547,-3.74087 8.35547,-8.35547 v -82.29883 c 4.41564,-0.91856 8.5864,-2.66188 12.33984,-5.15625 l 60.41407,52.73438 c -0.0158,0.0465 -0.0271,0.097 -0.043,0.14453 -0.29002,0.86611 -0.54878,1.74386 -0.77149,2.63867 -9.9e-4,0.007 -0.004,0.0126 -0.006,0.0195 -0.22271,0.8958 -0.40908,1.80603 -0.5625,2.72657 -0.009,0.0534 -0.0204,0.10571 -0.0293,0.16015 -0.14154,0.86907 -0.24799,1.75079 -0.32618,2.63867 -0.0129,0.15639 -0.0244,0.31041 -0.0351,0.4668 -0.0643,0.87699 -0.10938,1.75951 -0.10938,2.65234 0,0.58103 0.0172,1.15833 0.0449,1.73243 0.007,0.1366 0.0175,0.2716 0.0254,0.4082 0.0267,0.46126 0.0619,0.91964 0.10547,1.37695 0.01,0.1069 0.0223,0.21146 0.0332,0.31836 0.0564,0.53649 0.1259,1.07005 0.20508,1.59961 9.9e-4,0.007 9.5e-4,0.0107 0.002,0.0176 2.13309,14.13679 12.43227,25.51888 26.08008,29.13672 l 0,352.21396 h 16.70508 l 0,-351.7706 c 0.50877,-0.1069 1.01477,-0.2258 1.51562,-0.35547 0.0911,-0.0238 0.17944,-0.0525 0.27149,-0.0762 0.44641,-0.11779 0.88962,-0.24231 1.32812,-0.37891 0.18708,-0.0584 0.3725,-0.12027 0.55859,-0.18164 0.3405,-0.11186 0.67912,-0.22494 1.01368,-0.3457 0.20391,-0.0732 0.4055,-0.14936 0.60742,-0.22657 0.31675,-0.12076 0.6296,-0.24338 0.9414,-0.37304 0.20292,-0.0831 0.40453,-0.17071 0.60547,-0.25781 0.30883,-0.13364 0.61314,-0.27153 0.91602,-0.41407 0.19401,-0.0911 0.38805,-0.1843 0.58008,-0.27734 0.31377,-0.15442 0.62377,-0.31421 0.93359,-0.47852 0.17223,-0.0911 0.34829,-0.18036 0.51953,-0.27539 0.35634,-0.19598 0.70624,-0.40055 1.05664,-0.60742 0.1168,-0.0703 0.23672,-0.13576 0.35352,-0.20703 0.46621,-0.28408 0.92655,-0.57794 1.3789,-0.88281 0.0732,-0.0495 0.14356,-0.10286 0.2168,-0.15235 0.37317,-0.25637 0.74319,-0.51884 1.10547,-0.78906 0.14352,-0.1069 0.28325,-0.21728 0.42578,-0.32617 0.28804,-0.22172 0.57629,-0.44614 0.85938,-0.67578 0.15441,-0.1267 0.3085,-0.25609 0.46093,-0.38477 0.2633,-0.22172 0.52389,-0.44614 0.78125,-0.67578 0.15342,-0.1366 0.30559,-0.27741 0.45703,-0.41797 0.25142,-0.23261 0.49867,-0.4714 0.74414,-0.71094 0.14353,-0.14056 0.28815,-0.28128 0.42969,-0.42382 0.25538,-0.25736 0.50452,-0.52087 0.75,-0.78516 0.12273,-0.13164 0.24547,-0.26189 0.36524,-0.39453 0.29893,-0.3306 0.58992,-0.66632 0.875,-1.00781 0.0614,-0.0723 0.12417,-0.14355 0.18554,-0.2168 0.34645,-0.42068 0.68409,-0.8506 1.01172,-1.28711 0.0732,-0.097 0.14259,-0.19889 0.21485,-0.29687 0.24845,-0.33853 0.49194,-0.67797 0.72851,-1.0254 0.10493,-0.15343 0.20566,-0.31236 0.3086,-0.46875 0.19599,-0.29695 0.39105,-0.59651 0.57812,-0.90039 0.10889,-0.17619 0.2144,-0.35308 0.32031,-0.53125 0.17421,-0.292 0.34351,-0.58781 0.50782,-0.88476 0.10394,-0.18609 0.20471,-0.37053 0.30468,-0.5586 0.16036,-0.3009 0.31533,-0.60723 0.46875,-0.91211 0.0921,-0.18609 0.1863,-0.37052 0.27539,-0.55859 0.15639,-0.32961 0.30469,-0.66251 0.45118,-0.99609 0.0732,-0.16827 0.15042,-0.3327 0.2207,-0.50196 0.18411,-0.43751 0.35715,-0.87975 0.52344,-1.32617 0.0257,-0.0693 0.0543,-0.13775 0.0801,-0.20703 0.18906,-0.5167 0.36595,-1.04078 0.53125,-1.56836 0.0475,-0.15243 0.0893,-0.30752 0.13477,-0.46094 0.11284,-0.37614 0.22425,-0.75367 0.32422,-1.13476 0.0525,-0.20094 0.098,-0.40258 0.14844,-0.60352 0.0831,-0.3405 0.16305,-0.68483 0.23828,-1.02929 0.0465,-0.21678 0.0903,-0.43555 0.13281,-0.6543 0.0653,-0.33655 0.12426,-0.67515 0.17969,-1.01367 0.0366,-0.22271 0.0728,-0.44622 0.10547,-0.66992 0.0505,-0.34644 0.0951,-0.69453 0.13476,-1.04493 0.0248,-0.21677 0.0515,-0.43458 0.0723,-0.65234 0.0366,-0.38307 0.0632,-0.76727 0.0879,-1.1543 0.0119,-0.18608 0.0263,-0.37151 0.0351,-0.55859 0.0277,-0.57509 0.0449,-1.15238 0.0449,-1.73242 0,-0.68694 -0.0248,-1.36984 -0.0625,-2.04688 -0.01,-0.16629 -0.0252,-0.32884 -0.0371,-0.49414 -0.0376,-0.53253 -0.0841,-1.06424 -0.14453,-1.58984 -0.0178,-0.15738 -0.0387,-0.31431 -0.0605,-0.4707 -0.0723,-0.56025 -0.15787,-1.11663 -0.25586,-1.66797 -0.0198,-0.10987 -0.0397,-0.22021 -0.0605,-0.33008 -0.12373,-0.66121 -0.26152,-1.31651 -0.42187,-1.96485 v -0.002 c -0.34149,-1.38576 -0.76479,-2.73918 -1.26367,-4.05664 -0.0238,-0.0634 -0.0505,-0.12514 -0.0742,-0.1875 -0.20787,-0.54243 -0.42948,-1.07981 -0.66407,-1.60937 -0.0792,-0.18015 -0.16002,-0.35892 -0.24218,-0.53907 -0.18411,-0.39692 -0.3753,-0.79067 -0.57227,-1.17968 -0.0772,-0.15243 -0.14346,-0.30755 -0.22266,-0.45899 L 476.375,425.04883 c 0.0732,0.0327 0.14941,0.0552 0.22266,0.0879 0.60578,0.25835 1.21918,0.49796 1.84179,0.72266 0.27022,0.098 0.54517,0.18627 0.81836,0.27734 0.43652,0.1455 0.87588,0.28535 1.32031,0.41601 0.27419,0.0802 0.5471,0.15918 0.82227,0.23243 0.66517,0.17718 1.33365,0.33993 2.01367,0.47851 0.17619,0.0356 0.35506,0.0621 0.53125,0.0957 0.56618,0.10689 1.13588,0.2011 1.70899,0.27929 0.1168,0.0158 0.23085,0.0428 0.34765,0.0566 V 611.8066 c 0,4.6146 3.73892,8.35352 8.35352,8.35352 4.6146,0 8.35547,-3.73892 8.35547,-8.35352 V 425.8691 c 0.84828,-0.30586 1.67945,-0.65035 2.49804,-1.01758 l 0.11914,-0.0527 c 11.52561,-5.22829 19.80527,-16.38494 20.92774,-29.55664 0.0149,-0.16233 0.0272,-0.32495 0.0391,-0.48828 0.0614,-0.85125 0.10156,-1.70617 0.10156,-2.57227 0,-0.68497 -0.0239,-1.36399 -0.0625,-2.03906 -0.009,-0.16332 -0.0252,-0.32887 -0.0371,-0.49219 -0.0376,-0.53253 -0.0851,-1.05934 -0.14454,-1.58594 -0.0178,-0.15342 -0.0378,-0.30946 -0.0586,-0.46289 -0.0713,-0.55925 -0.15593,-1.11371 -0.25195,-1.66406 -0.0188,-0.10888 -0.0388,-0.21924 -0.0606,-0.32812 -0.12076,-0.64835 -0.25769,-1.28933 -0.41211,-1.92579 -0.003,-0.0119 -0.005,-0.0272 -0.008,-0.0391 -0.33951,-1.38477 -0.75996,-2.73822 -1.25586,-4.05469 -0.0119,-0.0327 -0.0272,-0.0639 -0.0391,-0.0976 -0.21677,-0.57212 -0.45083,-1.13705 -0.69532,-1.69531 -0.0742,-0.17026 -0.15226,-0.34051 -0.23047,-0.50977 -0.18708,-0.40682 -0.38206,-0.80813 -0.58398,-1.20703 -0.0703,-0.14056 -0.13086,-0.28426 -0.20312,-0.42383 L 593.83008,298.875 c 0.0257,0.0138 0.0524,0.0262 0.0781,0.0391 2.25979,1.19077 4.66064,2.14408 7.17383,2.83399 l 0,594.8272 H 617.791 l 0,-594.28818 c 16.27681,-3.36246 28.55078,-17.80672 28.55078,-35.06445 0,-19.74221 -16.06149,-35.80469 -35.80469,-35.80469 z m 0,16.70898 c 10.52885,0 19.09766,8.56488 19.09766,19.09571 0,10.52885 -8.56683,19.09765 -19.09766,19.09765 -0.46324,0 -0.91576,-0.0366 -1.37109,-0.0703 -0.27418,-0.0188 -0.55105,-0.0367 -0.82227,-0.0684 -0.42563,-0.0495 -0.84305,-0.11715 -1.25977,-0.19336 -0.14649,-0.0267 -0.29685,-0.0427 -0.44336,-0.0723 -0.59587,-0.12373 -1.18272,-0.27398 -1.75781,-0.45313 -0.0287,-0.009 -0.0562,-0.0204 -0.0859,-0.0293 -0.54342,-0.17124 -1.07503,-0.36718 -1.59766,-0.58593 -0.0921,-0.0386 -0.18433,-0.0825 -0.27539,-0.12305 -0.44741,-0.19599 -0.88682,-0.40807 -1.31641,-0.63672 -0.12373,-0.0653 -0.24544,-0.13482 -0.36719,-0.20312 -0.38207,-0.2138 -0.75584,-0.44211 -1.12109,-0.68165 -0.1455,-0.096 -0.29398,-0.19104 -0.4375,-0.29101 -0.32962,-0.22865 -0.64716,-0.47225 -0.96094,-0.7207 -0.15244,-0.12175 -0.30856,-0.23854 -0.45703,-0.36524 -4.16324,-3.505 -6.81836,-8.74962 -6.81836,-14.60547 -0.002,-10.52687 8.56295,-19.09375 19.0918,-19.09375 z M 490.5957,373.08398 c 7.88798,0 14.6739,4.80773 17.58203,11.64649 0.009,0.0208 0.0165,0.0436 0.0254,0.0644 0.22173,0.52758 0.41855,1.06685 0.59376,1.61719 0.0208,0.0673 0.0427,0.1329 0.0625,0.19922 0.15242,0.49888 0.28171,1.00972 0.39257,1.52344 0.0238,0.10987 0.0495,0.21825 0.0703,0.32812 0.096,0.48106 0.16719,0.97188 0.22461,1.4668 0.0158,0.13264 0.0369,0.26384 0.0508,0.39648 0.0594,0.61073 0.0937,1.22697 0.0937,1.85156 0,0.62359 -0.0344,1.23891 -0.0937,1.84766 -0.0257,0.26626 -0.0727,0.52577 -0.10938,0.78906 -0.0455,0.33061 -0.089,0.66262 -0.15234,0.98828 -0.0643,0.33456 -0.14831,0.66065 -0.23047,0.98829 -0.0604,0.23954 -0.11627,0.48119 -0.18555,0.71875 -0.10691,0.36426 -0.22974,0.72082 -0.35742,1.07617 -0.0673,0.18807 -0.13183,0.37544 -0.20508,0.56054 -0.14847,0.37515 -0.31118,0.74319 -0.48242,1.10547 -0.0723,0.15343 -0.14448,0.30754 -0.2207,0.45899 -0.18807,0.37316 -0.38782,0.74126 -0.59766,1.10156 -0.0782,0.13165 -0.1581,0.26095 -0.23828,0.39062 -0.22469,0.36327 -0.46056,0.71802 -0.70703,1.06446 -0.0851,0.11779 -0.17365,0.23281 -0.25977,0.34961 -0.25834,0.34348 -0.52261,0.6812 -0.80273,1.00586 -0.095,0.10889 -0.19597,0.21341 -0.29297,0.32031 -0.28606,0.31873 -0.57695,0.63271 -0.88281,0.93164 -0.10591,0.10294 -0.21924,0.19787 -0.32813,0.29883 -0.31179,0.29002 -0.62935,0.5794 -0.96094,0.84765 -0.10889,0.0891 -0.22702,0.1668 -0.33789,0.25391 -0.68793,0.53352 -1.41267,1.02147 -2.17187,1.45899 -0.1069,0.0614 -0.20848,0.13396 -0.31836,0.19335 -0.24646,0.13461 -0.50639,0.24932 -0.75781,0.37305 -0.2821,0.13957 -0.55863,0.28445 -0.84766,0.41016 -0.2633,0.11383 -0.53448,0.20565 -0.80273,0.30859 -0.28804,0.10888 -0.57514,0.22429 -0.8711,0.32031 -0.292,0.095 -0.59367,0.1708 -0.89062,0.25196 -0.27913,0.0762 -0.55673,0.15344 -0.8418,0.21679 -0.32664,0.0723 -0.65864,0.12621 -0.99023,0.18164 -0.29002,0.0495 -0.58006,0.0992 -0.87305,0.13477 -0.21381,0.0257 -0.42685,0.0466 -0.63867,0.0664 -0.54342,0.0465 -1.08827,0.084 -1.64258,0.084 -0.59588,0 -1.18457,-0.0363 -1.76758,-0.0898 -0.16827,-0.0158 -0.33566,-0.0378 -0.50195,-0.0586 -0.43256,-0.0515 -0.86154,-0.11514 -1.2832,-0.19531 -0.16134,-0.0297 -0.32304,-0.0611 -0.48438,-0.0957 -0.50977,-0.10987 -1.01193,-0.23822 -1.50586,-0.38867 -0.0515,-0.0158 -0.10382,-0.0271 -0.1543,-0.043 -0.56025,-0.17619 -1.10903,-0.37787 -1.64453,-0.60157 -0.10789,-0.0455 -0.21242,-0.099 -0.32031,-0.14648 -0.41177,-0.18114 -0.81791,-0.37609 -1.21484,-0.58594 -0.15441,-0.0822 -0.3085,-0.16682 -0.46094,-0.25195 -0.35238,-0.19796 -0.69567,-0.40917 -1.0332,-0.62891 -0.14749,-0.096 -0.29686,-0.1881 -0.44336,-0.28906 -4.99568,-3.44759 -8.2793,-9.20562 -8.2793,-15.7207 -0.006,-10.52885 8.56099,-19.09571 19.08984,-19.09571 z m -223.42187,23.51758 c 10.52984,0 19.0957,8.56587 19.0957,19.09571 0,5.1887 -2.08665,9.89327 -5.45703,13.33789 -0.21578,0.22172 -0.44522,0.42687 -0.66992,0.63672 -0.24646,0.22865 -0.48775,0.46294 -0.7461,0.67773 -0.16629,0.13957 -0.34047,0.26384 -0.51171,0.39648 -0.33754,0.26329 -0.67395,0.52901 -1.0293,0.76953 -0.0426,0.0287 -0.0873,0.0542 -0.13086,0.082 -3.02592,2.0153 -6.65181,3.19531 -10.55273,3.19531 -0.45534,0 -0.90318,-0.0367 -1.35157,-0.0684 -0.25934,-0.0178 -0.52095,-0.0289 -0.77929,-0.0586 -0.54144,-0.0604 -1.07498,-0.14117 -1.60157,-0.2461 -0.18114,-0.0356 -0.35891,-0.0864 -0.53906,-0.12695 -0.39395,-0.0901 -0.78488,-0.18596 -1.16992,-0.30078 -0.18807,-0.0554 -0.37446,-0.11832 -0.56055,-0.17969 -0.38306,-0.1267 -0.76063,-0.26557 -1.13281,-0.41602 -0.16035,-0.0643 -0.32209,-0.12797 -0.48047,-0.19726 -0.42958,-0.18807 -0.8519,-0.39062 -1.26367,-0.60938 -0.0901,-0.0475 -0.18336,-0.0902 -0.27344,-0.14062 -0.50976,-0.27913 -1.00527,-0.57963 -1.48633,-0.9043 -0.0693,-0.0465 -0.13578,-0.1 -0.20508,-0.14844 -4.98084,-3.44957 -8.25585,-9.19893 -8.25585,-15.70312 0.005,-10.52588 8.57271,-19.0918 19.10156,-19.0918 z m 114.0625,94.07227 c 7.23864,0 13.54937,4.0491 16.78711,10.00195 0,9.9e-4 0.002,0.003 0.002,0.004 0.28705,0.52758 0.54859,1.07262 0.78516,1.6289 0.0129,0.0327 0.0262,0.063 0.0391,0.0957 0.21677,0.51768 0.41175,1.04939 0.58398,1.58984 0.0228,0.0703 0.0437,0.14067 0.0645,0.21094 0.15144,0.49789 0.28072,1.00481 0.39257,1.51953 0.0238,0.10987 0.0495,0.21825 0.0703,0.32812 0.096,0.48205 0.16621,0.97384 0.22461,1.46875 0.0158,0.13264 0.0369,0.26289 0.0508,0.39454 0.0594,0.61072 0.0957,1.22695 0.0957,1.85351 0,10.52885 -8.56683,19.09766 -19.09765,19.09766 -0.37516,0 -0.74114,-0.0339 -1.11133,-0.0547 -0.41276,-0.0238 -0.82463,-0.054 -1.23047,-0.10352 -0.26824,-0.0336 -0.5326,-0.0785 -0.79688,-0.12304 -0.3316,-0.0534 -0.66167,-0.10941 -0.98632,-0.17969 -0.37516,-0.0822 -0.74509,-0.18219 -1.11133,-0.28711 -0.19598,-0.0544 -0.39388,-0.1066 -0.58789,-0.16797 -0.51669,-0.16629 -1.02555,-0.34973 -1.52344,-0.55859 -0.0346,-0.0148 -0.0699,-0.0271 -0.10352,-0.041 -6.83777,-2.90912 -11.64648,-9.69405 -11.64648,-17.58203 0,-0.57806 0.0374,-1.14769 0.0879,-1.71289 0.0139,-0.14847 0.0261,-0.29489 0.043,-0.44336 0.0614,-0.54144 0.14117,-1.07692 0.24609,-1.60351 0.0238,-0.11482 0.0543,-0.22893 0.0801,-0.34375 0.096,-0.43454 0.20732,-0.86346 0.33203,-1.28711 0.0465,-0.15936 0.094,-0.32015 0.14453,-0.47852 0.16332,-0.50482 0.342,-1.00132 0.54492,-1.48633 0.0376,-0.0901 0.0815,-0.1775 0.1211,-0.26758 0.18807,-0.43058 0.39159,-0.85481 0.61133,-1.26757 0.0614,-0.11482 0.12024,-0.22992 0.18359,-0.34375 3.26249,-5.87366 9.52384,-9.86133 16.70508,-9.86133 z"
       sodipodi:nodetypes="ssccssccsccsssccccccccccccccccccsssccccccscccscsccscccccccscccccccccccccsccccccsccccccccccccccccscccccccsscsscsccccccccccccsccccscsccccssscccccsccccccscccccccccccccssscsccscscsccccccccssccccscccsccccccscccsccccccccccccccsccccsccccscccccsccsssccccscscccccccccccccssccccccscccssccccccccsccccccscccsccccc" /><circle
       id="circle5023-9"
       r="27.449049"
       cy="559.79401"
       cx="157.11588"
       style="fill:none;fill-opacity:1;fill-rule:evenodd;stroke-width:0.989833;stroke-linecap:round;stroke-linejoin:round" /><circle
       id="circle5023-9-4"
       r="27.449049"
       cy="559.79401"
       cx="157.11588"
       style="fill:none;fill-opacity:1;fill-rule:evenodd;stroke:#000002;stroke-width:17;stroke-linecap:round;stroke-linejoin:round;stroke-miterlimit:4;stroke-dasharray:none;stroke-opacity:1" /></g></g></svg>
